<svg xmlns="http://www.w3.org/2000/svg" width="48.748" height="41.784" viewBox="0 0 48.748 41.784">
  <path id="Path_3" data-name="Path 3" d="M48.56,12.79l-8.977-.435L39.06,6.5A2.247,2.247,0,0,0,36.569,4.51L4.371,7.154A2.22,2.22,0,0,0,2.26,9.515L4.566,35.173a2.253,2.253,0,0,0,2.492,1.991l1.632-.131-.261,4.984a2.471,2.471,0,0,0,2.437,2.557l35.919,1.708a2.5,2.5,0,0,0,2.7-2.307L51,15.326A2.46,2.46,0,0,0,48.56,12.79Zm-38.618.577L9.169,28.035l-1.9,2.688L5.513,11.354v-.109a1.179,1.179,0,0,1,1.045-1.023l28.4-2.329a1.05,1.05,0,0,1,1.143.86c0,.022.033.022.033.044s.033.022.033.044l.294,3.351L12.63,11.049A2.51,2.51,0,0,0,9.942,13.367ZM46.286,39.145,37.058,28.318l-4.07,3.732-7.53-8.792L12.107,37.48l1.132-21.665v-.044a1.244,1.244,0,0,1,1.295-.979L46.22,16.316a1.156,1.156,0,0,1,1.132,1.11c0,.022.033.033.033.054Z" transform="translate(-2.252 -4.502)" fill="#fff"/>
</svg>
